<svg height="512" viewBox="0 0 64 64" width="512" xmlns="http://www.w3.org/2000/svg" xmlns:xlink="http://www.w3.org/1999/xlink"><linearGradient id="New_Gradient_Swatch_3" gradientUnits="userSpaceOnUse" x1="32" x2="32" y1="62.451" y2=".784"><stop offset="0" stop-color="#006df0"/><stop offset="1" stop-color="#00e7f0"/></linearGradient><linearGradient id="New_Gradient_Swatch_3-3" x1="18" x2="18" xlink:href="#New_Gradient_Swatch_3" y1="62.451" y2=".784"/><linearGradient id="New_Gradient_Swatch_3-4" x1="46" x2="46" xlink:href="#New_Gradient_Swatch_3" y1="62.451" y2=".784"/><g id="Calculator"><path d="m49 62h-34a7.008 7.008 0 0 1 -7-7v-46a7.008 7.008 0 0 1 7-7h34a7.008 7.008 0 0 1 7 7v46a7.008 7.008 0 0 1 -7 7zm-34-58a5.006 5.006 0 0 0 -5 5v46a5.006 5.006 0 0 0 5 5h34a5.006 5.006 0 0 0 5-5v-46a5.006 5.006 0 0 0 -5-5z" fill="url(#New_Gradient_Swatch_3)"/><path d="m35 58h-6a3 3 0 0 1 -3-3v-4a3 3 0 0 1 3-3h6a3 3 0 0 1 3 3v4a3 3 0 0 1 -3 3zm-6-8a1 1 0 0 0 -1 1v4a1 1 0 0 0 1 1h6a1 1 0 0 0 1-1v-4a1 1 0 0 0 -1-1z" fill="url(#New_Gradient_Swatch_3)"/><path d="m21 58h-6a3 3 0 0 1 -3-3v-4a3 3 0 0 1 3-3h6a3 3 0 0 1 3 3v4a3 3 0 0 1 -3 3zm-6-8a1 1 0 0 0 -1 1v4a1 1 0 0 0 1 1h6a1 1 0 0 0 1-1v-4a1 1 0 0 0 -1-1z" fill="url(#New_Gradient_Swatch_3-3)"/><path d="m49 58h-6a3 3 0 0 1 -3-3v-16a3 3 0 0 1 3-3h6a3 3 0 0 1 3 3v16a3 3 0 0 1 -3 3zm-6-20a1 1 0 0 0 -1 1v16a1 1 0 0 0 1 1h6a1 1 0 0 0 1-1v-16a1 1 0 0 0 -1-1z" fill="url(#New_Gradient_Swatch_3-4)"/><path d="m35 46h-6a3 3 0 0 1 -3-3v-4a3 3 0 0 1 3-3h6a3 3 0 0 1 3 3v4a3 3 0 0 1 -3 3zm-6-8a1 1 0 0 0 -1 1v4a1 1 0 0 0 1 1h6a1 1 0 0 0 1-1v-4a1 1 0 0 0 -1-1z" fill="url(#New_Gradient_Swatch_3)"/><path d="m21 46h-6a3 3 0 0 1 -3-3v-4a3 3 0 0 1 3-3h6a3 3 0 0 1 3 3v4a3 3 0 0 1 -3 3zm-6-8a1 1 0 0 0 -1 1v4a1 1 0 0 0 1 1h6a1 1 0 0 0 1-1v-4a1 1 0 0 0 -1-1z" fill="url(#New_Gradient_Swatch_3-3)"/><path d="m35 34h-6a3 3 0 0 1 -3-3v-4a3 3 0 0 1 3-3h6a3 3 0 0 1 3 3v4a3 3 0 0 1 -3 3zm-6-8a1 1 0 0 0 -1 1v4a1 1 0 0 0 1 1h6a1 1 0 0 0 1-1v-4a1 1 0 0 0 -1-1z" fill="url(#New_Gradient_Swatch_3)"/><path d="m21 34h-6a3 3 0 0 1 -3-3v-4a3 3 0 0 1 3-3h6a3 3 0 0 1 3 3v4a3 3 0 0 1 -3 3zm-6-8a1 1 0 0 0 -1 1v4a1 1 0 0 0 1 1h6a1 1 0 0 0 1-1v-4a1 1 0 0 0 -1-1z" fill="url(#New_Gradient_Swatch_3-3)"/><path d="m49 34h-6a3 3 0 0 1 -3-3v-4a3 3 0 0 1 3-3h6a3 3 0 0 1 3 3v4a3 3 0 0 1 -3 3zm-6-8a1 1 0 0 0 -1 1v4a1 1 0 0 0 1 1h6a1 1 0 0 0 1-1v-4a1 1 0 0 0 -1-1z" fill="url(#New_Gradient_Swatch_3-4)"/><path d="m49 20h-34a3 3 0 0 1 -3-3v-8a3 3 0 0 1 3-3h34a3 3 0 0 1 3 3v8a3 3 0 0 1 -3 3zm-34-12a1 1 0 0 0 -1 1v8a1 1 0 0 0 1 1h34a1 1 0 0 0 1-1v-8a1 1 0 0 0 -1-1z" fill="url(#New_Gradient_Swatch_3)"/><path d="m46 17a3 3 0 0 1 -3-3v-2a3 3 0 0 1 6 0v2a3 3 0 0 1 -3 3zm0-6a1 1 0 0 0 -1 1v2a1 1 0 0 0 2 0v-2a1 1 0 0 0 -1-1z" fill="url(#New_Gradient_Swatch_3-4)"/></g></svg>