<?xml version="1.0" encoding="UTF-8"?>
<!DOCTYPE svg PUBLIC "-//W3C//DTD SVG 1.1//EN" "http://www.w3.org/Graphics/SVG/1.1/DTD/svg11.dtd">
<!-- Creator: CorelDRAW 2019 (64-Bit) -->
<svg xmlns="http://www.w3.org/2000/svg" xml:space="preserve" width="500px" height="162px" version="1.1" style="shape-rendering:geometricPrecision; text-rendering:geometricPrecision; image-rendering:optimizeQuality; fill-rule:evenodd; clip-rule:evenodd"
viewBox="0 0 1567.58 508.63"
 xmlns:xlink="http://www.w3.org/1999/xlink">
 <defs>
  <style type="text/css">
   <![CDATA[
    .str0 {stroke:#2B2A29;stroke-width:0.3;stroke-miterlimit:22.9256}
    .fil0 {fill:#ffffff}
    .fil1 {fill:#ffffff;fill-rule:nonzero}
   ]]>
  </style>
 </defs>
 <g id="Слой_x0020_1">
  <metadata id="CorelCorpID_0Corel-Layer"/>
  <polygon class="fil0 str0" points="0.15,0.15 394.26,0.15 394.26,111.51 354.25,111.51 354.25,37.27 217.2,37.27 217.2,74.39 217.2,111.51 177.2,111.51 177.2,74.39 177.2,37.27 40.15,37.27 40.15,235.75 80.15,235.75 80.15,254.31 80.15,272.87 40.15,272.87 40.15,471.36 177.2,471.36 177.2,434.24 177.2,397.12 217.2,397.12 217.2,434.24 217.2,471.36 354.25,471.36 354.25,397.12 394.26,397.12 394.26,508.48 0.15,508.48 0.15,254.31 "/>
  <path class="fil1" d="M261.86 315.05c-15.73,15.11 -35.59,22.66 -59.57,22.66 -23.98,0 -43.88,-7.55 -59.69,-22.66 -15.8,-15.1 -23.71,-34.41 -23.71,-57.93 0,-23.52 7.91,-42.83 23.71,-57.93 15.81,-15.11 35.71,-22.66 59.69,-22.66 23.98,0 43.84,7.55 59.57,22.66 15.72,15.1 23.59,34.41 23.59,57.93 0,23.52 -7.87,42.83 -23.59,57.93zm-59.57 -12.85c12.61,0 22.81,-4.28 30.6,-12.84 7.79,-8.57 11.68,-19.31 11.68,-32.24 0,-12.93 -3.89,-23.67 -11.68,-32.24 -7.79,-8.56 -17.99,-12.85 -30.6,-12.85 -12.77,0 -23.05,4.29 -30.84,12.85 -7.78,8.57 -11.68,19.31 -11.68,32.24 0,12.93 3.9,23.67 11.68,32.24 7.79,8.56 18.07,12.84 30.84,12.84zm295.17 32.71l-49.29 0 -40.88 -58.64 -10.51 13.09 0 45.55 -40.18 0 0 -155.81 40.18 0 0 64 47.89 -64 49.52 0 -60.5 72.88 63.77 82.93zm187.49 -19.86c-15.73,15.11 -35.59,22.66 -59.57,22.66 -23.98,0 -43.88,-7.55 -59.68,-22.66 -15.81,-15.1 -23.71,-34.41 -23.71,-57.93 0,-23.52 7.9,-42.83 23.71,-57.93 15.8,-15.11 35.7,-22.66 59.68,-22.66 23.98,0 43.84,7.55 59.57,22.66 15.73,15.1 23.59,34.41 23.59,57.93 0,23.52 -7.86,42.83 -23.59,57.93zm-59.57 -12.85c12.62,0 22.82,-4.28 30.6,-12.84 7.79,-8.57 11.68,-19.31 11.68,-32.24 0,-12.93 -3.89,-23.67 -11.68,-32.24 -7.78,-8.56 -17.98,-12.85 -30.6,-12.85 -12.77,0 -23.05,4.29 -30.83,12.85 -7.79,8.57 -11.68,19.31 -11.68,32.24 0,12.93 3.89,23.67 11.68,32.24 7.78,8.56 18.06,12.84 30.83,12.84zm299.38 32.71l-40.18 0 0 -62.61 -64.7 0 0 62.61 -40.18 0 0 -155.81 40.18 0 0 58.16 64.7 0 0 -58.16 40.18 0 0 155.81zm223.93 0l-40.18 0 0 -62.61 -64.71 0 0 62.61 -40.18 0 0 -155.81 40.18 0 0 58.16 64.71 0 0 -58.16 40.18 0 0 155.81zm230.23 0l-45.55 0 -7.71 -22.43 -61.43 0 -7.71 22.43 -45.55 0 58.63 -155.81 50.46 0 58.86 155.81zm-64.24 -57.47l-19.85 -58.63 -19.86 58.63 39.71 0zm166 57.47l-46.02 0 31.77 -57.23c-8.57,-2.96 -15.93,-8.37 -22.08,-16.24 -6.15,-7.86 -9.22,-18.02 -9.22,-30.48 0,-14.95 4.86,-27.33 14.6,-37.15 9.73,-9.81 23.01,-14.71 39.82,-14.71l78.03 0 0 155.81 -40.42 0 0 -52.33 -20.55 0 -25.93 52.33zm14.71 -87.37l31.77 0 0 -33.4 -31.77 0c-5.45,0 -10,1.48 -13.66,4.44 -3.66,2.95 -5.49,7 -5.49,12.14 0,5.3 1.83,9.42 5.49,12.38 3.66,2.96 8.21,4.44 13.66,4.44z"/>
  <path class="fil1" d="M536.71 468.19l-8.42 0 0 -70.17 8.74 0 0 54.81 40.39 -54.81 8.94 0 0 70.17 -8.73 0 0 -55.97 -40.92 55.97zm178.84 0l-8.73 0 0 -32.19 -41.03 0 0 32.19 -8.73 0 0 -70.17 8.73 0 0 30.19 41.03 0 0 -30.19 8.73 0 0 70.17zm65.86 12.94l0 -19.99c3.08,-0.21 5.54,-0.95 7.36,-2.21 1.82,-1.26 3.49,-3.93 5,-7.99 1.5,-4.07 2.75,-9.96 3.73,-17.68l4.31 -35.24 42.93 0 0 62.38 6.41 0 0 20.73 -8.73 0 0 -12.94 -52.28 0 0 12.94 -8.73 0zm24.72 -47.24c-1.62,13.54 -5.19,22.38 -10.73,26.51l40.6 0 0 -54.59 -26.4 0 -3.47 28.08zm117.51 35.56c-2.88,0 -5.54,-0.52 -8,-1.58 -2.45,-1.05 -4.35,-2.38 -5.68,-3.99l3.68 -6.95c3.02,3.16 6.21,4.74 9.58,4.74 2.66,0 4.78,-0.7 6.36,-2.11 1.58,-1.4 3.38,-4.03 5.42,-7.89l1.26 -2.42 -26.93 -51.23 9.99 0 21.99 43.45 21.99 -43.45 9.99 0 -30.61 57.76c-2.46,4.62 -5.09,8.06 -7.89,10.31 -2.81,2.24 -6.52,3.36 -11.15,3.36zm144.23 0c-10.24,0 -18.82,-3.38 -25.72,-10.15 -6.91,-6.77 -10.37,-15.48 -10.37,-26.14 0,-10.66 3.46,-19.38 10.37,-26.15 6.9,-6.76 15.48,-10.15 25.72,-10.15 11.22,0 20.09,4.63 26.61,13.89l-7.36 4.1c-2.04,-3.01 -4.77,-5.47 -8.21,-7.36 -3.43,-1.9 -7.12,-2.84 -11.04,-2.84 -7.72,0 -14.15,2.68 -19.31,8.05 -5.15,5.36 -7.73,12.18 -7.73,20.46 0,8.27 2.58,15.09 7.73,20.46 5.16,5.36 11.59,8.05 19.31,8.05 3.92,0 7.61,-0.93 11.04,-2.79 3.44,-1.86 6.17,-4.33 8.21,-7.42l7.47 4.1c-6.81,9.26 -15.71,13.89 -26.72,13.89zm118.24 -1.26l-8.73 0 0 -62.38 -22.2 0 0 -7.79 53.23 0 0 7.79 -22.3 0 0 62.38zm96.89 0l-8.73 0 0 -70.17 28.19 0c6.81,0 12.17,2.03 16.1,6.1 3.93,4.07 5.89,9.08 5.89,15.05 0,5.96 -1.98,10.97 -5.94,15.04 -3.97,4.07 -9.31,6.1 -16.05,6.1l-19.46 0 0 27.88zm18.41 -35.66c4.14,0 7.51,-1.25 10.1,-3.74 2.6,-2.49 3.89,-5.7 3.89,-9.62 0,-3.93 -1.29,-7.14 -3.89,-9.63 -2.59,-2.49 -5.96,-3.73 -10.1,-3.73l-18.41 0 0 26.72 18.41 0zm97.31 35.66l-8.41 0 0 -70.17 8.73 0 0 54.81 40.39 -54.81 8.95 0 0 70.17 -8.74 0 0 -55.97 -40.92 55.97zm127.29 0l-10.2 0 18.94 -28.62c-5.12,-0.42 -9.45,-2.42 -13,-5.99 -3.54,-3.58 -5.31,-8.38 -5.31,-14.41 0,-6.39 2.05,-11.51 6.16,-15.36 4.1,-3.86 9.41,-5.79 15.93,-5.79l28.2 0 0 70.17 -8.73 0 0 -27.88 -14.1 0 -17.89 27.88zm13.47 -35.56l18.52 0 0 -26.82 -18.52 0c-4.14,0 -7.5,1.24 -10.1,3.73 -2.59,2.49 -3.89,5.7 -3.89,9.63 0,3.92 1.31,7.15 3.94,9.67 2.63,2.53 5.98,3.79 10.05,3.79z"/>
 </g>
</svg>
